<svg xmlns="http://www.w3.org/2000/svg" xmlns:xlink="http://www.w3.org/1999/xlink" width="500" zoomAndPan="magnify" viewBox="0 0 375 374.999991" height="500" preserveAspectRatio="xMidYMid meet" version="1.0"><defs><clipPath id="id1"><path d="M 59 3.710938 L 266 3.710938 L 266 326 L 59 326 Z M 59 3.710938 " clip-rule="nonzero"/></clipPath><clipPath id="id2"><path d="M 54 64 L 355.78125 64 L 355.78125 371 L 54 371 Z M 54 64 " clip-rule="nonzero"/></clipPath></defs><g clip-path="url(#id1)"><path fill="#ed282f" d="M 265.589844 130.839844 L 229.027344 149.652344 L 202.808594 77.492188 L 176.027344 3.792969 L 149.25 77.492188 L 59.171875 325.410156 C 77.644531 300.96875 109.613281 268.535156 145.628906 234.855469 L 176.027344 151.195312 L 191.917969 194.917969 C 217.007812 172.460938 242.515625 150.417969 265.589844 130.839844 " fill-opacity="1" fill-rule="nonzero"/></g><g clip-path="url(#id2)"><path fill="#233142" d="M 128.96875 318.726562 C 123.371094 307.308594 155.175781 278.210938 196.074219 235.242188 C 232.847656 196.605469 286.871094 141.882812 355.753906 64.859375 C 355.804688 64.804688 355.742188 64.710938 355.679688 64.753906 C 347.585938 71.261719 257.183594 144.066406 177.5625 216.71875 C 107.632812 280.539062 46.019531 344.230469 55.816406 362.765625 C 64.210938 378.652344 142.964844 381.59375 273.777344 273.78125 C 273.851562 273.722656 273.789062 273.605469 273.707031 273.648438 C 263.96875 278.507812 139.46875 340.132812 128.96875 318.726562 " fill-opacity="1" fill-rule="nonzero"/></g></svg>